REM MD5 4b3e5be0d312fad9309ac68c685955ff
FILE "Unsolved, The - Hyper Science Adventure (Japan) (Disc 3).bin" BINARY
  TRACK 01 MODE2/2352
    INDEX 01 00:00:00
  TRACK 02 AUDIO
    INDEX 00 50:56:20
    INDEX 01 50:58:20
  TRACK 03 AUDIO
    INDEX 00 54:58:07
    INDEX 01 55:00:07
REM LEADOUT 59:39:10
